<svg width="76" height="75" viewBox="0 0 76 75" fill="none" xmlns="http://www.w3.org/2000/svg">
<path d="M11.7012 66.7241L5.79895 0.973145H70.6531L64.7444 66.7142L38.1865 74.0267L11.7012 66.7241Z" fill="#E44C22"/>
<path d="M38.2261 68.4374L59.6864 62.5276L64.7356 6.34912H38.2261V68.4374Z" fill="#F16524"/>
<path d="M38.226 30.7352H27.4823L26.7401 22.477H38.226V14.4133H17.8671L18.0617 16.5766L20.0569 38.7995H38.226V30.7352ZM38.226 51.6784L38.19 51.6883L29.1482 49.2626L28.5707 42.8319H20.4197L21.5571 55.4934L38.1888 60.079L38.226 60.069V51.6784Z" fill="#EBEBEB"/>
<path d="M38.1976 30.7352V38.7995H48.1951L47.253 49.2579L38.1976 51.6854V60.0755L54.8424 55.4934L54.9645 54.1311L56.8723 32.9008L57.07 30.7352H54.8825H38.1976ZM38.1976 14.4133V22.477H57.8091L57.972 20.6653L58.3424 16.5766L58.5365 14.4133H38.1976Z" fill="white"/>
</svg>
