<svg width="77" height="75" viewBox="0 0 77 75" fill="none" xmlns="http://www.w3.org/2000/svg">
<g clip-path="url(#clip0_354_45)">
<path d="M39.3765 44.1211C43.0851 44.1211 46.0915 41.1305 46.0915 37.4414C46.0915 33.7523 43.0851 30.7617 39.3765 30.7617C35.6678 30.7617 32.6614 33.7523 32.6614 37.4414C32.6614 41.1305 35.6678 44.1211 39.3765 44.1211Z" fill="#1FDDFF"/>
<path d="M64.882 26.4258C63.5861 25.957 62.2313 25.4883 60.8176 25.0781C61.171 23.6719 61.4655 22.2656 61.7012 20.918C62.9382 13.1836 61.5834 7.73438 57.8135 5.625C56.6943 4.98047 55.4573 4.6875 54.0436 4.6875C49.9203 4.6875 44.6778 7.73438 39.3765 12.832C34.0751 7.73438 28.8326 4.6875 24.7093 4.6875C23.2956 4.6875 22.0586 4.98047 20.9395 5.625C17.1696 7.79297 15.8148 13.2422 17.0518 20.918C17.2874 22.2656 17.5819 23.6719 17.9353 25.0781C16.5216 25.4883 15.1668 25.8984 13.871 26.4258C6.50793 29.2383 2.50244 33.1055 2.50244 37.4414C2.50244 41.7774 6.56683 45.6445 13.871 48.457C15.1668 48.9258 16.5216 49.3945 17.9353 49.8047C17.5819 51.2109 17.2874 52.6172 17.0518 53.9649C15.8148 61.6992 17.1696 67.1485 20.9395 69.2578C22.0586 69.9024 23.2956 70.1953 24.7093 70.1953C28.8915 70.1953 34.134 67.1485 39.3765 62.0508C44.6778 67.1485 49.9203 70.1953 54.0436 70.1953C55.4573 70.1953 56.6943 69.9024 57.8135 69.2578C61.5834 67.0899 62.9382 61.6406 61.7012 53.9649C61.4655 52.6172 61.171 51.2109 60.8176 49.8047C62.2313 49.3945 63.5861 48.9844 64.882 48.457C72.245 45.6445 76.2505 41.7774 76.2505 37.4414C76.2505 33.1055 72.245 29.2383 64.882 26.4258ZM56.1642 8.55469C58.5792 9.96094 59.4039 14.2969 58.4025 20.4492C58.2258 21.6797 57.9313 22.9688 57.5779 24.3164C54.5149 23.6133 51.2751 23.1445 47.8587 22.8516C45.8559 20.0391 43.7943 17.5195 41.7326 15.2344C46.0915 10.957 50.5094 8.02734 54.1025 8.02734C54.8683 8.02734 55.5751 8.20313 56.1642 8.55469ZM49.5669 43.3008C48.5066 45.1758 47.2696 47.0508 45.9737 48.9258C43.7943 49.1016 41.6148 49.1602 39.3765 49.1602C37.0792 49.1602 34.8997 49.1016 32.7792 48.9258C31.4833 47.0508 30.3052 45.1758 29.2449 43.3008C28.1258 41.3672 27.0655 39.375 26.123 37.4414C27.0655 35.5078 28.1258 33.5156 29.2449 31.582C30.3052 29.707 31.5422 27.832 32.8381 25.957C35.0176 25.7813 37.197 25.7227 39.4354 25.7227C41.7326 25.7227 43.9121 25.7813 46.0326 25.957C47.3285 27.832 48.5066 29.707 49.5669 31.582C50.6861 33.5156 51.7464 35.5078 52.6888 37.4414C51.6874 39.375 50.6861 41.3086 49.5669 43.3008ZM54.4559 41.3672C55.3395 43.418 56.0464 45.4102 56.6943 47.4024C54.6916 47.8711 52.571 48.2227 50.3326 48.5156C51.0395 47.4024 51.8053 46.2305 52.4532 45C53.1601 43.7695 53.808 42.5391 54.4559 41.3672ZM39.3765 57.2461C37.9628 55.7227 36.608 54.082 35.3121 52.3828C36.6669 52.4414 38.0217 52.5 39.3765 52.5C40.7313 52.5 42.0861 52.4414 43.4409 52.3828C42.145 54.082 40.7902 55.7227 39.3765 57.2461ZM28.4203 48.457C26.1819 48.1641 24.0614 47.8125 22.0586 47.3438C22.7066 45.4102 23.4134 43.3594 24.297 41.3086C24.9449 42.4805 25.5929 43.7109 26.2997 44.8828C27.0066 46.1719 27.7134 47.2852 28.4203 48.457ZM24.297 33.5156C23.4134 31.4648 22.7066 29.4727 22.0586 27.4805C24.0614 27.0117 26.1819 26.6602 28.4203 26.3672C27.7134 27.4805 26.9477 28.6523 26.2997 29.8828C25.5929 31.1133 24.9449 32.3438 24.297 33.5156ZM39.3765 17.6367C40.7902 19.1602 42.145 20.8008 43.4409 22.5C42.0861 22.4414 40.7313 22.3828 39.3765 22.3828C38.0217 22.3828 36.6669 22.4414 35.3121 22.5C36.608 20.8008 37.9628 19.1602 39.3765 17.6367ZM52.4532 29.9414L50.3326 26.4258C52.571 26.7188 54.6916 27.0703 56.6943 27.5391C56.0464 29.4727 55.3395 31.5234 54.4559 33.5742C53.808 32.3438 53.1601 31.1133 52.4532 29.9414ZM20.3504 20.4492C19.349 14.2969 20.1737 9.96094 22.5888 8.55469C23.1778 8.20313 23.8847 8.02734 24.6504 8.02734C28.1847 8.02734 32.6025 10.8984 37.0203 15.2344C34.9587 17.4609 32.897 20.0391 30.8943 22.8516C27.4778 23.1445 24.2381 23.6719 21.1751 24.3164C20.8216 22.9688 20.586 21.6797 20.3504 20.4492ZM5.80108 37.4414C5.80108 34.6875 9.15862 31.7578 15.049 29.5898C16.2271 29.1211 17.523 28.7109 18.8189 28.3594C19.7614 31.2891 20.9395 34.3945 22.3532 37.5C20.9395 40.6055 19.7025 43.6524 18.8189 46.582C10.6901 44.2383 5.80108 40.7227 5.80108 37.4414ZM22.5888 66.3281C20.1737 64.9219 19.349 60.5859 20.3504 54.4336C20.5271 53.2031 20.8216 51.9141 21.1751 50.5664C24.2381 51.2695 27.4778 51.7383 30.8943 52.0313C32.897 54.8438 34.9587 57.3633 37.0203 59.6484C32.6614 63.9258 28.2436 66.8555 24.6504 66.8555C23.8847 66.8555 23.1778 66.6797 22.5888 66.3281ZM58.4025 54.4336C59.4039 60.5859 58.5792 64.9219 56.1642 66.3281C55.5751 66.6797 54.8683 66.8555 54.1025 66.8555C50.5683 66.8555 46.1505 63.9844 41.7326 59.6484C43.7943 57.4219 45.8559 54.8438 47.8587 52.0313C51.2751 51.7383 54.5149 51.2109 57.5779 50.5664C57.9313 51.9141 58.1669 53.2031 58.4025 54.4336ZM63.7039 45.293C62.5258 45.7617 61.2299 46.1719 59.934 46.5234C58.9916 43.5938 57.8135 40.4883 56.3998 37.3828C57.8135 34.2774 59.0505 31.2305 59.934 28.3008C68.0628 30.6445 72.9519 34.1602 72.9519 37.4414C72.9519 40.1953 69.5354 43.125 63.7039 45.293Z" fill="#1FDDFF"/>
</g>
<rect x="1.23535" y="0.5" width="74.3974" height="74" rx="9.5" stroke="white"/>
<defs>
<clipPath id="clip0_354_45">
<rect x="0.735352" width="75.3974" height="75" rx="10" fill="white"/>
</clipPath>
</defs>
</svg>
