<svg width="76" height="75" viewBox="0 0 76 75" fill="none" xmlns="http://www.w3.org/2000/svg">
<g clip-path="url(#clip0_357_14)">
<path d="M35.7528 0.0201828C35.5916 0.0348434 35.0784 0.0861555 34.6165 0.122807C23.964 1.08308 13.986 6.83003 7.66634 15.663C4.14728 20.5743 1.89655 26.1454 1.04611 32.0463C0.745519 34.1061 0.708862 34.7145 0.708862 37.5073C0.708862 40.3002 0.745519 40.9086 1.04611 42.9684C3.08423 57.0499 13.1062 68.881 26.6986 73.2645C29.1326 74.0489 31.6986 74.584 34.6165 74.9065C35.7528 75.0312 40.6649 75.0312 41.8012 74.9065C46.8379 74.3494 51.1048 73.1033 55.313 70.9555C55.9581 70.6256 56.0828 70.5377 55.9948 70.4644C55.9361 70.4204 53.1869 66.7333 49.8877 62.2764L43.8907 54.1764L36.376 43.0564C32.2411 36.9429 28.8394 31.9436 28.81 31.9436C28.7807 31.9363 28.7514 36.8769 28.7367 42.9098C28.7147 53.4727 28.7074 53.8979 28.5754 54.1471C28.3848 54.5063 28.2382 54.6529 27.9303 54.8142C27.6957 54.9315 27.4904 54.9535 26.3833 54.9535H25.115L24.7778 54.7409C24.5578 54.6016 24.3965 54.4183 24.2866 54.2058L24.1326 53.8759L24.1473 39.1786L24.1693 24.4741L24.3965 24.1882C24.5138 24.0342 24.7631 23.8363 24.9391 23.741C25.2397 23.5944 25.357 23.5798 26.6253 23.5798C28.1209 23.5798 28.3702 23.6384 28.7587 24.0636C28.8687 24.1809 32.9376 30.309 37.8056 37.6906C42.6737 45.0722 49.3306 55.1514 52.6004 60.0993L58.5388 69.0936L58.8394 68.8957C61.5006 67.1657 64.3159 64.7028 66.5446 62.1372C71.288 56.6907 74.3452 50.0495 75.3716 42.9684C75.6722 40.9086 75.7089 40.3002 75.7089 37.5073C75.7089 34.7145 75.6722 34.1061 75.3716 32.0463C73.3335 17.9648 63.3115 6.13365 49.7191 1.75013C47.3218 0.973122 44.7704 0.43801 41.9112 0.115477C41.2074 0.0421737 36.3614 -0.0384596 35.7528 0.0201828ZM51.1048 22.7001C51.4567 22.8761 51.7426 23.2133 51.8452 23.5651C51.9039 23.7557 51.9185 27.8313 51.9039 37.0162L51.8819 50.1961L49.5578 46.6336L47.2265 43.071V33.4903C47.2265 27.2962 47.2558 23.8143 47.2998 23.6457C47.4171 23.2352 47.6737 22.9127 48.0256 22.7221C48.3262 22.5682 48.4361 22.5535 49.5872 22.5535C50.6722 22.5535 50.8628 22.5682 51.1048 22.7001Z" fill="black"/>
</g>
<defs>
<clipPath id="clip0_357_14">
<rect width="75" height="75" fill="white" transform="translate(0.708862)"/>
</clipPath>
</defs>
</svg>
