<svg width="91" height="62" viewBox="0 0 91 62" fill="none" xmlns="http://www.w3.org/2000/svg">
<path d="M22.1082 55.6822H18.6355C18.5127 49.8205 18.1745 44.3098 17.6215 39.1461H17.5907L12.3034 55.6822H9.65947L4.40376 39.1461H4.37356C3.98368 44.1038 3.73807 49.6159 3.63607 55.6822H0.470703C0.674704 48.3053 1.18739 41.3894 2.00675 34.9338H6.3109L11.3203 50.1796H11.3512L16.3915 34.9338H20.5098C21.4117 42.4953 21.9445 49.4119 22.1082 55.6822ZM37.1687 40.3741C35.7548 48.0469 33.8893 53.6221 31.5741 57.1022C29.7703 59.781 27.7941 61.1218 25.642 61.1218C25.0683 61.1218 24.3603 60.9487 23.5215 60.6051V58.755C23.9315 58.814 24.4126 58.8476 24.9656 58.8476C25.9708 58.8476 26.7788 58.5711 27.3948 58.0168C28.1316 57.3417 28.5 56.5828 28.5 55.7433C28.5 55.1675 28.2128 53.9905 27.6397 52.2082L23.8288 40.3734H27.2405L29.9757 49.2246C30.5904 51.2345 30.8467 52.6376 30.744 53.4369C32.2398 49.4421 33.2847 45.0862 33.8799 40.3727H37.1687V40.3741Z" fill="#5D87A1"/>
<path d="M83.3944 55.6823H73.5299V34.9339H76.8483V53.1283H83.3944V55.6823ZM70.9477 56.1836L67.1334 54.3013C67.4716 54.0235 67.7951 53.7228 68.0863 53.3745C69.7076 51.4701 70.5162 48.6537 70.5162 44.9233C70.5162 38.059 67.8226 34.6252 62.4333 34.6252C59.7907 34.6252 57.7292 35.4963 56.2549 37.239C54.635 39.1448 53.8264 41.9512 53.8264 45.6614C53.8264 49.3086 54.543 51.9841 55.9771 53.6812C57.289 55.2186 59.2666 55.9883 61.9112 55.9883C62.8977 55.9883 63.8029 55.8675 64.6277 55.6239L69.5935 58.5148L70.9477 56.1836ZM58.5915 51.5305C57.7514 50.179 57.3313 48.0088 57.3313 45.0165C57.3313 39.7924 58.9183 37.1773 62.0958 37.1773C63.7566 37.1773 64.9739 37.8027 65.7524 39.0509C66.5912 40.4044 67.0133 42.5551 67.0133 45.5057C67.0133 50.7729 65.4249 53.4068 62.2495 53.4068C60.5879 53.4074 59.3706 52.784 58.5915 51.5305ZM52.3802 49.9314C52.3802 51.6909 51.7347 53.1343 50.4449 54.265C49.1538 55.3911 47.4225 55.9554 45.2529 55.9554C43.2237 55.9554 41.2561 55.3072 39.3517 54.0174L40.2435 52.2358C41.8822 53.0565 43.3659 53.4645 44.698 53.4645C45.9482 53.4645 46.9252 53.1873 47.6339 52.6377C48.3418 52.0861 48.7639 51.3124 48.7639 50.334C48.7639 49.1013 47.9043 48.0477 46.3273 47.1653C44.8731 46.3667 41.9648 44.6971 41.9648 44.6971C40.3885 43.5483 39.5993 42.3149 39.5993 40.2829C39.5993 38.6012 40.1878 37.2437 41.3655 36.2109C42.5446 35.1742 44.0659 34.6575 45.9307 34.6575C47.8566 34.6575 49.6074 35.1735 51.1844 36.1948L50.3845 37.9772C49.0357 37.4041 47.7043 37.1175 46.3911 37.1175C45.3274 37.1175 44.5061 37.3732 43.935 37.8866C43.3592 38.3979 43.0042 39.0522 43.0042 39.8548C43.0042 41.0815 43.882 42.1484 45.5019 43.0483C46.9756 43.8482 49.9564 45.5467 49.9564 45.5467C51.573 46.6935 52.3802 47.9155 52.3802 49.9314Z" fill="#F8981D"/>
<path d="M87.5603 27.9844C85.5539 27.9334 84.0004 28.1354 82.6965 28.687C82.32 28.8373 81.7215 28.8373 81.6691 29.3131C81.8724 29.5144 81.8959 29.8392 82.0724 30.117C82.3731 30.6183 82.8972 31.2927 83.3756 31.6443C83.9011 32.047 84.4285 32.4456 84.9814 32.7965C85.9565 33.3998 87.0617 33.7508 88.0119 34.352C88.5656 34.7017 89.1158 35.1539 89.6701 35.5304C89.9426 35.7311 90.117 36.0565 90.4707 36.182V36.1055C90.2935 35.88 90.2432 35.5539 90.0694 35.3029L89.3165 34.5768C88.589 33.5998 87.6851 32.7469 86.7101 32.0463C85.9075 31.4933 84.152 30.7418 83.8266 29.817L83.7756 29.766C84.3272 29.7144 84.9814 29.5144 85.5055 29.3607C86.3585 29.1359 87.1362 29.1869 88.0113 28.9621C88.4139 28.8615 88.8132 28.7353 89.2172 28.6111V28.385C88.7635 27.9334 88.4401 27.3335 87.963 26.9067C86.6866 25.8041 85.2801 24.7257 83.8266 23.8232C83.0481 23.3205 82.0469 22.9971 81.2182 22.5696C80.9196 22.4186 80.4163 22.3442 80.2404 22.0932C79.7908 21.5416 79.5378 20.8155 79.2117 20.1626C78.487 18.7849 77.783 17.2562 77.1576 15.7994C76.7053 14.8223 76.4302 13.8466 75.8786 12.9427C73.295 8.68147 70.4893 6.10059 66.1771 3.56735C65.2504 3.0399 64.1479 2.8151 62.9701 2.53862L61.0892 2.43931C60.6879 2.26349 60.2859 1.78637 59.9356 1.56089C58.5049 0.658994 54.8215 -1.29579 53.7693 1.28509C53.0915 2.91643 54.7719 4.52025 55.349 5.34766C55.7751 5.92208 56.3274 6.57569 56.6253 7.22796C56.8018 7.65408 56.8515 8.10637 57.028 8.55665C57.4292 9.65986 57.8044 10.8872 58.3318 11.9166C58.6069 12.4414 58.9069 12.993 59.2585 13.4681C59.4599 13.7459 59.8101 13.8687 59.8866 14.3217C59.537 14.821 59.5095 15.5746 59.3089 16.2013C58.407 19.0338 58.7593 22.5428 60.0376 24.6244C60.4376 25.2512 61.3918 26.6309 62.6682 26.1021C63.7982 25.6511 63.5479 24.2224 63.8727 22.9696C63.9472 22.6669 63.8982 22.4683 64.0485 22.2697V22.3187C64.3982 23.0199 64.7511 23.6957 65.0753 24.3989C65.853 25.6263 67.2072 26.9053 68.3352 27.7556C68.9358 28.2092 69.4116 28.9849 70.1639 29.2621V29.1869H70.1142C69.9619 28.9621 69.7391 28.8615 69.5391 28.687C69.0868 28.2354 68.5862 27.6838 68.2353 27.1831C67.1844 25.7786 66.2543 24.2238 65.4289 22.6193C65.0249 21.8409 64.6766 20.99 64.3512 20.2129C64.1995 19.9129 64.1995 19.4606 63.9479 19.3096C63.5707 19.8606 63.0211 20.3377 62.746 21.0128C62.2689 22.0925 62.2192 23.4205 62.0421 24.8016L61.9434 24.8499C61.1449 24.6492 60.8671 23.8232 60.5637 23.1219C59.8128 21.3409 59.6867 18.4822 60.3383 16.4275C60.5127 15.902 61.2677 14.2472 60.9664 13.7466C60.8154 13.2668 60.3134 12.9937 60.0383 12.6159C59.7149 12.1408 59.3605 11.5395 59.1351 11.012C58.5338 9.60886 58.2312 8.05403 57.5836 6.65152C57.2809 5.99792 56.7555 5.32149 56.3301 4.71955C55.8523 4.04313 55.3268 3.56668 54.949 2.76477C54.8242 2.48896 54.6491 2.03801 54.8497 1.73805C54.8987 1.53673 55.0007 1.46158 55.2007 1.41125C55.5255 1.13679 56.4535 1.48573 56.779 1.63672C57.7084 2.01251 58.4855 2.36348 59.2612 2.88958C59.6122 3.14123 59.9886 3.61768 60.4389 3.74317H60.9664C61.7669 3.91764 62.6695 3.79148 63.4231 4.0183C64.7511 4.44509 65.9543 5.07119 67.0334 5.74694C70.3169 7.82922 73.0246 10.7879 74.8525 14.3217C75.1525 14.8975 75.28 15.4249 75.5538 16.0255C76.0819 17.2549 76.7348 18.5084 77.2589 19.7116C77.7857 20.8893 78.2877 22.0918 79.0399 23.0702C79.415 23.5964 80.9222 23.8722 81.598 24.148C82.0979 24.3728 82.8763 24.5727 83.3273 24.8485C84.1802 25.374 85.0298 25.9773 85.8317 26.555C86.231 26.8557 87.4858 27.4824 87.5603 27.9844ZM61.9891 6.19923C61.643 6.19563 61.2979 6.23806 60.963 6.32539V6.37572H61.0113C61.2133 6.77634 61.5643 7.05416 61.8146 7.40378C62.0166 7.80574 62.1917 8.20435 62.3897 8.60564L62.438 8.55598C62.7916 8.30567 62.9675 7.90438 62.9675 7.30245C62.8151 7.12529 62.7916 6.95215 62.6648 6.77634C62.5172 6.52536 62.1917 6.40055 61.9891 6.19923Z" fill="#5D87A1"/>
<path d="M89.948 55.6789H90.4674V53.1369H89.6883L89.0528 54.8716L88.3623 53.1369H87.6121V55.6789H88.1026V53.7449H88.1301L88.8535 55.6789H89.2273L89.948 53.7449V55.6789ZM85.764 55.6789H86.3136V53.5677H87.0329V53.1362H85.0144V53.5677H85.7626L85.764 55.6789Z" fill="#F8981D"/>
</svg>
