<svg width="60" height="60" viewBox="0 0 60 60" fill="none" xmlns="http://www.w3.org/2000/svg">
<path d="M14.9821 -1.90735e-06C12.9271 -1.90735e-06 10.9916 0.394263 9.17562 1.18279C7.35962 1.97132 5.77061 3.04659 4.4086 4.4086C3.04659 5.77061 1.97132 7.35962 1.18279 9.17563C0.39426 10.9916 -3.8147e-06 12.9271 -3.8147e-06 14.9821V44.9462C-3.8147e-06 47.0012 0.39426 48.9486 1.18279 50.7885C1.97132 52.6284 3.04659 54.2294 4.4086 55.5914C5.77061 56.9534 7.35962 58.0287 9.17562 58.8172C10.9916 59.6057 12.9271 60 14.9821 60H45.0179C47.0729 60 49.0084 59.6057 50.8244 58.8172C52.6404 58.0287 54.2294 56.9534 55.5914 55.5914C56.9534 54.2294 58.0287 52.6284 58.8172 50.7885C59.6057 48.9486 60 47.0012 60 44.9462V14.9821C60 12.9271 59.6057 10.9916 58.8172 9.17563C58.0287 7.35962 56.9534 5.77061 55.5914 4.4086C54.2294 3.04659 52.6404 1.97132 50.8244 1.18279C49.0084 0.394263 47.0729 -1.90735e-06 45.0179 -1.90735e-06H14.9821ZM46.8817 37.8495L37.8495 31.3979L46.8817 24.9462V37.8495ZM13.1183 40.6452L24.086 32.7599L29.9642 36.9892L35.914 32.7599L46.8817 40.6452V44.9462H13.1183V40.6452ZM13.1183 24.9462L22.1505 31.3979L13.1183 37.8495V24.9462ZM13.1183 14.9821H46.8817V19.3548L29.9642 31.3979L13.1183 19.3548V14.9821Z" fill="#EB0000"/>
</svg>
