<svg width="100" height="88" viewBox="0 0 100 88" fill="none" xmlns="http://www.w3.org/2000/svg">
<g clip-path="url(#clip0_354_49)">
<path d="M0.708862 43.9999C0.708862 56.7826 22.8237 67.146 50.1034 67.146C77.3831 67.146 99.498 56.7826 99.498 43.9999C99.498 31.2173 77.3823 20.8539 50.1034 20.8539C22.8237 20.8539 0.708862 31.2173 0.708862 43.9999Z" fill="url(#paint0_radial_354_49)"/>
<path d="M50.1034 65.4273C76.3172 65.4273 97.5685 55.8332 97.5685 43.9999C97.5685 32.1653 76.3172 22.5726 50.1034 22.5726C23.8895 22.5726 2.63831 32.1653 2.63831 43.9999C2.63831 55.8332 23.8895 65.4273 50.1034 65.4273Z" fill="#484C89"/>
<path d="M27.5455 46.6564C29.7011 46.6564 31.3096 46.3024 32.3275 45.6046C33.3355 44.9129 34.0309 43.716 34.3959 42.0468C34.7355 40.4861 34.6059 39.3971 34.01 38.8086C33.4019 38.2078 32.086 37.9032 30.0994 37.9032H26.6541L24.7455 46.6564H27.5455ZM16.2782 57.4385C16.1991 57.4384 16.1211 57.4227 16.0497 57.3926C15.9782 57.3625 15.9152 57.3186 15.865 57.2642C15.8148 57.2098 15.7788 57.1462 15.7595 57.0779C15.7402 57.0096 15.7381 56.9383 15.7534 56.8693L20.814 33.6744C20.8379 33.566 20.9033 33.4683 20.999 33.3979C21.0947 33.3276 21.2148 33.289 21.3388 33.2887H32.2473C35.6756 33.2887 38.2271 34.1178 39.8317 35.7534C41.4432 37.3965 41.9417 39.6955 41.3112 42.5837C41.0542 43.76 40.6127 44.8524 39.9991 45.8314C39.3604 46.8384 38.5455 47.7482 37.585 48.5264C36.4034 49.5109 35.0659 50.2259 33.6126 50.646C32.1832 51.0613 30.3464 51.2716 28.156 51.2716H23.7383L22.4772 57.0521C22.4534 57.1609 22.3879 57.259 22.2918 57.3294C22.1958 57.3999 22.0753 57.4385 21.9508 57.4385H16.2782Z" fill="#484C89"/>
<path d="M27.0963 38.3803H30.0993C32.4973 38.3803 33.33 38.8492 33.6133 39.129C34.0818 39.5924 34.1713 40.5707 33.8687 41.956C33.5299 43.5077 32.9017 44.6084 32.001 45.2258C31.0795 45.8583 29.5791 46.1787 27.5455 46.1787H25.3953L27.0971 38.381L27.0963 38.3803ZM32.2472 32.8116H21.3395C21.0908 32.8116 20.8498 32.8886 20.6577 33.0295C20.4657 33.1703 20.3346 33.3662 20.2868 33.5837L15.2262 56.7792C15.1963 56.9174 15.201 57.0597 15.24 57.1961C15.279 57.3324 15.3514 57.4594 15.4519 57.568C15.5524 57.6765 15.6785 57.764 15.8214 57.8241C15.9642 57.8842 16.1202 57.9155 16.2781 57.9156H21.9508C22.1995 57.9154 22.4404 57.8383 22.6323 57.6973C22.8242 57.5563 22.9551 57.3604 23.0027 57.1429L24.1797 51.7488H28.1552C30.4026 51.7488 32.2951 51.5302 33.7792 51.0998C35.305 50.6584 36.7089 49.9097 37.9515 48.8743C38.952 48.0626 39.801 47.1141 40.4668 46.0645C41.1081 45.0422 41.5697 43.901 41.8367 42.6745C42.5004 39.6337 41.961 37.1992 40.2345 35.4392C38.5242 33.695 35.8368 32.8109 32.2472 32.8109V32.8116ZM24.0948 47.1329H27.5455C29.8323 47.1329 31.5356 46.75 32.6547 45.9813C33.7746 45.2141 34.5286 43.9326 34.9222 42.1375C35.2966 40.4133 35.126 39.1971 34.409 38.4883C33.6905 37.7802 32.2549 37.4254 30.0993 37.4254H26.2126L24.0948 47.1329ZM32.248 33.7645C35.5296 33.7645 37.923 34.5324 39.4279 36.0662C40.9329 37.6007 41.3852 39.7423 40.7863 42.4916C40.5378 43.6246 40.1202 44.66 39.5321 45.5977C38.9425 46.5368 38.1738 47.3948 37.2237 48.1738C36.0907 49.1177 34.8335 49.7908 33.4481 50.1916C32.0635 50.5931 30.2992 50.7932 28.156 50.7932H23.2968L21.9515 56.96H16.2789L21.3403 33.7645H32.248Z" fill="white"/>
<path d="M54.3167 51.2716C54.2376 51.2717 54.1594 51.2562 54.0879 51.2262C54.0163 51.1962 53.9531 51.1524 53.9028 51.0981C53.8524 51.0437 53.8163 50.9801 53.7968 50.9118C53.7774 50.8435 53.7751 50.7722 53.7903 50.7031L56.0285 40.4401C56.2423 39.4638 56.1898 38.764 55.8819 38.467C55.6928 38.2861 55.1263 37.983 53.4507 37.983H49.3942L46.5802 50.886C46.5561 50.9946 46.4903 51.0924 46.3942 51.1626C46.298 51.2329 46.1774 51.2712 46.0531 51.271H40.4268C40.3477 51.271 40.2697 51.2555 40.1981 51.2255C40.1266 51.1956 40.0634 51.1519 40.013 51.0976C39.9627 51.0434 39.9264 50.9799 39.9068 50.9117C39.8872 50.8435 39.8847 50.7722 39.8996 50.7031L44.961 27.5075C44.985 27.3989 45.0506 27.301 45.1466 27.2306C45.2426 27.1603 45.3631 27.1218 45.4874 27.1218H51.1137C51.1928 27.1218 51.2708 27.1373 51.3424 27.1673C51.4139 27.1972 51.4771 27.2409 51.5275 27.2952C51.5778 27.3494 51.6141 27.4129 51.6337 27.4811C51.6533 27.5493 51.6558 27.6206 51.6409 27.6897L50.4199 33.2887H54.7828C58.1069 33.2887 60.3605 33.8098 61.6734 34.8844C63.0109 35.9796 63.4292 37.7306 62.9144 40.0908L60.5597 50.886C60.5355 50.9945 60.4699 51.0922 60.3739 51.1624C60.2779 51.2326 60.1575 51.271 60.0333 51.271H54.3167V51.2716Z" fill="#484C89"/>
<path d="M51.1145 26.644H45.4874C45.2385 26.6441 44.9974 26.7212 44.8054 26.8622C44.6133 27.0032 44.4823 27.1992 44.4346 27.4168L39.374 50.6117C39.344 50.7499 39.3486 50.8923 39.3876 51.0287C39.4266 51.1652 39.4989 51.2923 39.5994 51.4009C39.6999 51.5095 39.8261 51.5971 39.969 51.6572C40.1119 51.7173 40.2679 51.7486 40.426 51.7488H46.0531C46.3019 51.7487 46.543 51.6716 46.7351 51.5307C46.9271 51.3897 47.0582 51.1936 47.1058 50.976L49.8356 38.4601H53.4492C55.1224 38.4601 55.4743 38.7784 55.4874 38.7929C55.5893 38.8891 55.7228 39.3394 55.5021 40.3494L53.2639 50.6117C53.2339 50.7499 53.2385 50.8924 53.2775 51.0289C53.3166 51.1654 53.3889 51.2925 53.4895 51.4012C53.5901 51.5098 53.7164 51.5973 53.8594 51.6574C54.0024 51.7175 54.1585 51.7487 54.3166 51.7488H60.0341C60.2828 51.7486 60.5237 51.6714 60.7156 51.5304C60.9075 51.3895 61.0384 51.1935 61.086 50.976L63.4407 40.1823C63.9926 37.6482 63.5202 35.7479 62.0361 34.5331C60.6191 33.374 58.2466 32.8109 54.7828 32.8109H51.0705L52.1672 27.7819C52.1974 27.6435 52.1928 27.501 52.1539 27.3644C52.1149 27.2278 52.0426 27.1006 51.942 26.9919C51.8413 26.8832 51.715 26.7956 51.5719 26.7354C51.4289 26.6753 51.2727 26.6441 51.1145 26.644ZM51.1145 27.5997L49.7693 33.7652H54.7828C57.9371 33.7652 60.1136 34.256 61.3098 35.2364C62.5084 36.2168 62.8665 37.8042 62.3888 40.0008L60.0333 50.7939H54.3166L56.5556 40.5309C56.8103 39.3635 56.7161 38.5674 56.2739 38.1425C55.8317 37.7183 54.8901 37.5059 53.4507 37.5059H48.9519L46.0531 50.7932H40.4252L45.4866 27.5976H51.1145V27.5997Z" fill="white"/>
<path d="M71.8185 46.6564C73.9741 46.6564 75.5832 46.3024 76.602 45.6046C77.6084 44.9129 78.3046 43.716 78.6696 42.0468C79.0092 40.4861 78.8803 39.3971 78.2837 38.8086C77.6756 38.2078 76.3597 37.9032 74.3731 37.9032H70.9286L69.0184 46.6564H71.8185ZM60.5534 57.4385C60.4742 57.4386 60.396 57.4231 60.3244 57.393C60.2528 57.363 60.1895 57.3192 60.1392 57.2647C60.0888 57.2103 60.0527 57.1466 60.0333 57.0782C60.0139 57.0098 60.0118 56.9385 60.027 56.8693L65.0877 33.6744C65.1116 33.5657 65.1772 33.4679 65.2732 33.3975C65.3693 33.3272 65.4897 33.2887 65.614 33.2887H76.5217C79.95 33.2887 82.5016 34.1178 84.1054 35.7534C85.7176 37.3965 86.2154 39.6955 85.5849 42.5837C85.3439 43.7214 84.9013 44.8177 84.2736 45.8314C83.6347 46.8383 82.8197 47.748 81.8594 48.5264C80.6786 49.5109 79.3396 50.2259 77.887 50.646C76.4577 51.0613 74.6208 51.2716 72.4297 51.2716H68.0128L66.7524 57.0521C66.7286 57.161 66.6629 57.2592 66.5668 57.3297C66.4706 57.4002 66.3499 57.4386 66.2253 57.4385H60.5534Z" fill="#484C89"/>
<path d="M71.3701 38.3803H74.3731C76.7711 38.3803 77.6039 38.8492 77.8863 39.129C78.3571 39.5924 78.4451 40.5707 78.1433 41.956C77.8037 43.5077 77.1755 44.6084 76.2748 45.2258C75.3525 45.8583 73.8522 46.1787 71.8193 46.1787H69.6691L71.3701 38.3803ZM76.521 32.8116H65.6133C65.3647 32.8118 65.1239 32.8889 64.932 33.0297C64.7401 33.1705 64.6091 33.3663 64.5614 33.5837L59.5 56.7792C59.4701 56.9174 59.4748 57.0598 59.5139 57.1962C59.5529 57.3326 59.6254 57.4597 59.7259 57.5682C59.8265 57.6768 59.9528 57.7643 60.0957 57.8243C60.2386 57.8844 60.3947 57.9156 60.5527 57.9156H66.2253C66.4741 57.9154 66.715 57.8383 66.9069 57.6973C67.0988 57.5563 67.2297 57.3604 67.2773 57.1429L68.4543 51.7488H72.429C74.6757 51.7488 76.5689 51.5302 78.0523 51.0998C79.5789 50.6584 80.9827 49.9097 82.2261 48.8737C83.2263 48.062 84.0751 47.1138 84.7406 46.0645C85.3827 45.0422 85.8427 43.901 86.1105 42.6745C86.7743 39.6337 86.2356 37.1992 84.5083 35.4392C82.798 33.695 80.1114 32.8109 76.5203 32.8109L76.521 32.8116ZM68.3686 47.1329H71.8185C74.1061 47.1329 75.8087 46.75 76.9293 45.9813C78.0484 45.2141 78.8032 43.9326 79.1953 42.1375C79.5711 40.4133 79.4006 39.1971 78.682 38.4883C77.9643 37.7802 76.528 37.4254 74.3731 37.4254H70.4872L68.3686 47.1329ZM76.521 33.7645C79.8019 33.7645 82.1968 34.5324 83.701 36.0662C85.206 37.6007 85.659 39.7423 85.0586 42.4916C84.8116 43.6246 84.3933 44.66 83.8052 45.5977C83.2163 46.5368 82.4468 47.3948 81.496 48.1738C80.3638 49.1177 79.1058 49.7908 77.7204 50.1916C76.3366 50.5931 74.573 50.7932 72.429 50.7932H67.5706L66.2238 56.96H60.5511L65.6125 33.7645H76.521Z" fill="white"/>
</g>
<defs>
<radialGradient id="paint0_radial_354_49" cx="0" cy="0" r="1" gradientUnits="userSpaceOnUse" gradientTransform="translate(30.3657 28.9911) scale(64.8623 57.7784)">
<stop stop-color="#AEB2D5"/>
<stop offset="0.3" stop-color="#AEB2D5"/>
<stop offset="0.75" stop-color="#484C89"/>
<stop offset="1" stop-color="#484C89"/>
</radialGradient>
<clipPath id="clip0_354_49">
<rect x="0.708862" width="98.7891" height="88" rx="10" fill="white"/>
</clipPath>
</defs>
</svg>
