<svg width="86" height="75" viewBox="0 0 86 75" fill="none" xmlns="http://www.w3.org/2000/svg">
<path fill-rule="evenodd" clip-rule="evenodd" d="M42.9669 2.98999C20.6866 2.98999 2.61951 18.8308 2.61951 38.3736C2.61951 54.0076 14.1803 67.2703 30.2115 71.9496C32.2273 72.2777 32.9676 71.182 32.9676 70.2474C32.9676 69.4037 32.9302 66.6164 32.9128 63.6597C21.6881 65.8001 19.3196 59.4849 19.3196 59.4849C17.4842 55.3951 14.8397 54.3076 14.8397 54.3076C11.1783 52.1115 15.1157 52.1572 15.1157 52.1572C19.1666 52.4062 21.3006 55.8035 21.3006 55.8035C24.8992 61.2117 30.7393 59.6484 33.0417 58.7449C33.4039 56.458 34.4495 54.8964 35.6034 54.0128C26.6417 53.1193 17.2203 50.0847 17.2203 36.5267C17.2203 32.6636 18.7971 29.5072 21.3781 27.0287C20.9585 26.138 19.5775 22.5392 21.7683 17.6654C21.7683 17.6654 25.1557 16.7144 32.866 21.2923C36.0851 20.5078 39.5373 20.1134 42.9669 20.0999C46.3944 20.1134 49.8487 20.5066 53.0738 21.2912C60.7747 16.7132 64.1582 17.6642 64.1582 17.6642C66.3543 22.5374 64.9733 26.1369 64.5544 27.0275C67.1414 29.506 68.7068 32.6624 68.7068 36.5255C68.7068 50.1158 59.2681 53.1076 50.2836 53.9841C51.7315 55.0822 53.021 57.2361 53.021 60.5367C53.021 65.271 52.9742 69.0814 52.9742 70.2468C52.9742 71.1884 53.7012 72.2917 55.7457 71.9443C71.7675 67.2603 83.3149 54.0017 83.3149 38.3736C83.3143 18.832 65.2492 2.98999 42.9669 2.98999Z" fill="#181616"/>
<path d="M17.9011 53.7926C17.8122 53.9684 17.4969 54.0211 17.2096 53.901C16.9156 53.7861 16.7519 53.5465 16.8468 53.3701C16.9336 53.1885 17.2497 53.1387 17.5416 53.26C17.8356 53.3754 18.0027 53.6174 17.9004 53.7932L17.9011 53.7926ZM19.5354 55.3916C19.3436 55.548 18.9674 55.4754 18.7122 55.2275C18.4476 54.9814 18.3982 54.6516 18.594 54.4928C18.7931 54.3369 19.1579 54.4107 19.4224 54.6568C19.6857 54.9064 19.7378 55.2334 19.536 55.3922L19.5354 55.3916ZM21.1269 57.4289C20.8797 57.5801 20.4748 57.4389 20.2249 57.1242C19.9777 56.809 19.9777 56.431 20.2316 56.2805C20.4808 56.1293 20.8797 56.2658 21.1335 56.5775C21.3794 56.8969 21.3794 57.2754 21.1269 57.4289ZM23.3057 59.3982C23.0852 59.6121 22.6135 59.5547 22.2687 59.2635C21.9166 58.9781 21.8184 58.5721 22.0395 58.3588C22.264 58.1443 22.7377 58.2041 23.0845 58.4935C23.4366 58.7783 23.5428 59.185 23.307 59.3976L23.3057 59.3982ZM26.3123 60.5414C26.2141 60.8185 25.7611 60.9445 25.3034 60.8262C24.847 60.7049 24.5484 60.3809 24.6419 60.1008C24.7355 59.8213 25.1918 59.6906 25.6521 59.8166C26.1085 59.9373 26.4071 60.2596 26.3123 60.5414ZM29.6149 60.7529C29.6262 61.0447 29.2387 61.2861 28.7596 61.292C28.2766 61.3019 27.8857 61.0652 27.881 60.7781C27.881 60.4834 28.2605 60.2449 28.7429 60.2367C29.222 60.2291 29.6155 60.4635 29.6155 60.7523L29.6149 60.7529ZM32.6869 60.2947C32.7444 60.5789 32.411 60.8713 31.9346 60.9492C31.4669 61.0254 31.0326 60.8484 30.9725 60.5666C30.9151 60.2748 31.2545 59.9824 31.7222 59.9068C32.1992 59.8348 32.6268 60.0059 32.6869 60.2947Z" fill="#181616"/>
</svg>
