<svg width="76" height="75" viewBox="0 0 76 75" fill="none" xmlns="http://www.w3.org/2000/svg">
<g clip-path="url(#clip0_357_20)">
<path d="M6.03943 37.499C6.03943 50.2325 13.4396 61.2368 24.1705 66.4515L8.82469 24.4067C7.03967 28.4076 6.03943 32.8352 6.03943 37.499Z" fill="#464342"/>
<path d="M59.9278 35.8756C59.9278 31.8998 58.4996 29.1465 57.2747 27.0034C55.644 24.3535 54.1155 22.1094 54.1155 19.4595C54.1155 16.5023 56.3584 13.7496 59.5176 13.7496C59.6603 13.7496 59.7956 13.7673 59.9345 13.7753C54.211 8.53176 46.5855 5.33032 38.2101 5.33032C26.9711 5.33032 17.0831 11.0966 11.3308 19.8305C12.0856 19.8531 12.7969 19.869 13.4011 19.869C16.766 19.869 21.9748 19.4607 21.9748 19.4607C23.709 19.3585 23.9135 21.9056 22.1811 22.1106C22.1811 22.1106 20.4383 22.3157 18.499 22.4173L30.2143 57.2628L37.2545 36.1486L32.2423 22.4161C30.5099 22.3145 28.8688 22.1094 28.8688 22.1094C27.1352 22.0078 27.3384 19.3573 29.072 19.4595C29.072 19.4595 34.3848 19.8678 37.5459 19.8678C40.9103 19.8678 46.1196 19.4595 46.1196 19.4595C47.8551 19.3573 48.0589 21.9044 46.3259 22.1094C46.3259 22.1094 44.5795 22.3145 42.6439 22.4161L54.2697 56.9978L57.4786 46.2751C58.8694 41.8255 59.9278 38.6296 59.9278 35.8756Z" fill="#464342"/>
<path d="M38.7745 40.313L29.1222 68.3602C32.0042 69.2074 35.052 69.6707 38.2101 69.6707C41.9564 69.6707 45.5491 69.0231 48.8932 67.8472C48.8069 67.7095 48.7286 67.5632 48.6643 67.404L38.7745 40.313Z" fill="#464342"/>
<path d="M66.4385 22.0649C66.5769 23.0896 66.6552 24.1896 66.6552 25.3729C66.6552 28.6374 66.0455 32.3071 64.2091 36.8956L54.3823 65.3064C63.9465 59.7293 70.3795 49.3678 70.3795 37.4998C70.3801 31.9068 68.9514 26.6473 66.4385 22.0649Z" fill="#464342"/>
<path d="M38.2101 0C17.5324 0 0.708862 16.8219 0.708862 37.4991C0.708862 58.1787 17.5324 75 38.2101 75C58.8871 75 75.7132 58.1787 75.7132 37.4991C75.7125 16.8219 58.8871 0 38.2101 0ZM38.2101 73.2811C18.4807 73.2811 2.42838 57.2292 2.42838 37.4991C2.42838 17.7701 18.48 1.71947 38.2101 1.71947C57.9389 1.71947 73.99 17.7701 73.99 37.4991C73.99 57.2292 57.9389 73.2811 38.2101 73.2811Z" fill="#464342"/>
</g>
<defs>
<clipPath id="clip0_357_20">
<rect width="75" height="75" fill="white" transform="translate(0.708862)"/>
</clipPath>
</defs>
</svg>
