<svg width="76" height="75" viewBox="0 0 76 75" fill="none" xmlns="http://www.w3.org/2000/svg">
<path d="M1.29565 0.824951H74.6457V74.1756H1.29565V0.824951Z" fill="#F2E802"/>
<path d="M68.6428 56.6812C68.1055 53.3349 65.9234 50.5242 59.46 47.9033C57.2146 46.8715 54.7115 46.1326 53.9656 44.431C53.7008 43.4408 53.6656 42.883 53.8332 42.2836C54.3143 40.3383 56.6363 39.7318 58.4767 40.2896C59.6621 40.6869 60.7842 41.6004 61.4609 43.0576C64.6262 41.008 64.6197 41.0215 66.8299 39.6129C66.0207 38.3584 65.5889 37.7795 65.0592 37.2428C63.1555 35.1164 60.5615 34.0213 56.4131 34.1051L54.2521 34.3845C52.1814 34.9078 50.208 35.9947 49.0508 37.4519C45.5785 41.3918 46.5687 48.2871 50.7939 51.1248C54.9564 54.249 61.0713 54.9597 61.8523 57.8812C62.6123 61.4578 59.2238 62.6156 55.8559 62.2043C53.3738 61.6881 51.9934 60.4265 50.501 58.1326C47.7541 59.7222 47.7541 59.7222 44.9299 61.3464C45.5996 62.8107 46.3033 63.4734 47.426 64.742C52.7393 70.1314 66.0353 69.8666 68.4201 61.7091C68.5168 61.4291 69.159 59.5611 68.6428 56.6812ZM41.1711 34.5369H34.3103L34.2822 52.2744C34.2822 56.0466 34.4773 59.5048 33.8639 60.5648C32.8602 62.6496 30.2592 62.3912 29.0738 61.9869C27.8674 61.3939 27.2539 60.5507 26.5432 59.359C26.348 59.0168 26.2016 58.7519 26.1523 58.7314L20.5742 62.1474C21.5018 64.0511 22.8682 65.7035 24.6184 66.7769C27.2328 68.3461 30.7467 68.8271 34.4217 67.9834C36.8135 67.2867 38.8771 65.8435 39.9576 63.6468C41.5197 60.767 41.1846 57.2812 41.1705 53.4258C41.2057 47.1357 41.1711 40.8469 41.1711 34.5369Z" fill="black"/>
</svg>
