<svg width="60" height="60" viewBox="0 0 60 60" fill="none" xmlns="http://www.w3.org/2000/svg">
<path d="M45.0179 0C47.0729 0 49.0084 0.394265 50.8244 1.1828C52.6404 1.97133 54.2294 3.0466 55.5914 4.4086C56.9534 5.77061 58.0287 7.35962 58.8172 9.17563C59.6057 10.9916 60 12.9271 60 14.9821V44.9462C60 47.0012 59.6057 48.9486 58.8172 50.7885C58.0287 52.6284 56.9534 54.2294 55.5914 55.5914C54.2294 56.9534 52.6404 58.0287 50.8244 58.8172C49.0084 59.6057 47.0729 60 45.0179 60H14.9821C12.9271 60 10.9916 59.6057 9.17563 58.8172C7.35962 58.0287 5.77061 56.9534 4.4086 55.5914C3.0466 54.2294 1.97133 52.6284 1.1828 50.7885C0.394265 48.9486 0 47.0012 0 44.9462V14.9821C0 12.9271 0.394265 10.9916 1.1828 9.17563C1.97133 7.35962 3.0466 5.77061 4.4086 4.4086C5.77061 3.0466 7.35962 1.97133 9.17563 1.1828C10.9916 0.394265 12.9271 0 14.9821 0H45.0179ZM49.319 39.6416C50.3226 37.5866 50.8244 34.8387 50.8244 31.3979C50.8244 27.4791 49.7013 24.1816 47.4552 21.5054C47.8853 20.1673 48.1004 18.7814 48.1004 17.3477C48.1004 15.4361 47.6703 13.6201 46.81 11.8996C44.994 11.8996 43.4409 12.2103 42.1505 12.8315C40.7168 13.5006 39.1637 14.5042 37.491 15.8423C36.3919 15.6033 35.2688 15.4122 34.1219 15.2688C32.9749 15.1254 31.7802 15.0538 30.5376 15.0538C27.8614 15.0538 25.3047 15.3405 22.8674 15.914C21.0514 14.5759 19.4743 13.5723 18.1362 12.9032C16.8459 12.2342 15.2688 11.8996 13.405 11.8996C12.5448 13.6201 12.1147 15.4361 12.1147 17.3477C12.1147 18.0645 12.1744 18.7694 12.2939 19.4624C12.4134 20.1553 12.5926 20.8363 12.8315 21.5054C10.5854 24.086 9.46237 27.3835 9.46237 31.3979C9.46237 34.8387 9.96416 37.5866 10.9677 39.6416C11.7802 41.3142 12.9749 42.6404 14.552 43.6201C16.129 44.5998 17.7778 45.3047 19.4982 45.7348C20.7407 46.1171 22.0072 46.3799 23.2975 46.5233C24.0143 46.6189 24.6834 46.6906 25.3047 46.7384C25.9259 46.7861 26.4994 46.81 27.0251 46.81C27.5508 46.8578 28.1004 46.8817 28.6738 46.8817H32.6882L34.6953 46.81C35.3166 46.7622 35.9737 46.6906 36.6667 46.595C37.3596 46.4994 38.1123 46.3799 38.9247 46.2366C40.5974 45.9498 42.0072 45.5675 43.1541 45.0896C44.3967 44.5639 45.5675 43.8351 46.6667 42.9032C47.7658 41.9713 48.6499 40.8841 49.319 39.6416ZM38.8531 28.3154C40.8602 28.3154 42.4134 29.0084 43.5125 30.3943C44.6595 31.7802 45.233 33.4767 45.233 35.4839C45.233 36.9176 44.9701 38.172 44.4444 39.2473C43.9188 40.3226 43.2497 41.1947 42.4373 41.8638C41.5771 42.4851 40.5735 42.963 39.4265 43.2975C38.184 43.6798 37.0131 43.9307 35.914 44.0502C34.8148 44.1697 33.5723 44.2294 32.1864 44.2294H28.0287C26.6428 44.2294 25.4122 44.1697 24.3369 44.0502C23.2617 43.9307 22.1027 43.6798 20.8602 43.2975C19.7133 42.963 18.7097 42.4851 17.8495 41.8638C17.037 41.1947 16.356 40.3226 15.8065 39.2473C15.2569 38.172 14.9821 36.9176 14.9821 35.4839C14.9821 33.4767 15.5556 31.7802 16.7025 30.3943C17.8017 29.0084 19.3548 28.3154 21.362 28.3154C21.7443 28.3154 22.3417 28.3513 23.1541 28.4229C23.9665 28.4946 24.994 28.626 26.2366 28.8172C26.81 28.9128 27.4194 28.9845 28.0645 29.0323C28.7097 29.08 29.3907 29.1039 30.1075 29.1039C30.8244 29.1039 31.5054 29.08 32.1505 29.0323C32.7957 28.9845 33.4289 28.9128 34.0502 28.8172C35.2927 28.626 36.3202 28.4946 37.1326 28.4229C37.945 28.3513 38.5185 28.3154 38.8531 28.3154ZM23.9427 39.3548C24.7073 38.4946 25.1493 37.5388 25.2688 36.4875C25.3883 35.4361 25.3047 34.4086 25.0179 33.405C24.8268 32.736 24.4803 32.1147 23.9785 31.5412C23.4767 30.9677 22.8674 30.681 22.1505 30.681C21.4337 30.681 20.8363 30.9677 20.3584 31.5412C19.5938 32.4014 19.1517 33.3572 19.0323 34.4086C18.9128 35.46 18.9964 36.4875 19.2832 37.491C19.5221 38.1601 19.8925 38.7814 20.3943 39.3548C20.8961 39.9283 21.4815 40.2151 22.1505 40.2151C22.8196 40.2151 23.417 39.9283 23.9427 39.3548ZM39.8566 39.3548C40.6213 38.4946 41.0633 37.5388 41.1828 36.4875C41.3023 35.4361 41.2186 34.4086 40.9319 33.405C40.7407 32.736 40.3943 32.1147 39.8925 31.5412C39.3907 30.9677 38.7814 30.681 38.0645 30.681C37.3477 30.681 36.7503 30.9677 36.2724 31.5412C35.5078 32.4014 35.0657 33.3572 34.9462 34.4086C34.8268 35.46 34.9104 36.4875 35.1971 37.491C35.4361 38.1601 35.8065 38.7814 36.3082 39.3548C36.81 39.9283 37.3955 40.2151 38.0645 40.2151C38.7336 40.2151 39.3309 39.9283 39.8566 39.3548Z" fill="black"/>
</svg>
