<svg width="77" height="75" viewBox="0 0 77 75" fill="none" xmlns="http://www.w3.org/2000/svg">
<path d="M12.0133 66.869L6.08252 0.792236H71.2542L65.3175 66.859L38.6288 74.2085L12.0133 66.869Z" fill="#006BC0"/>
<path d="M38.6689 68.591L60.2349 62.652L65.3086 6.19458H38.6689V68.591Z" fill="#0096DC"/>
<path d="M38.6689 30.1342H49.4652L50.2108 21.8355H38.6689V13.7314H59.1277L58.9319 15.9059L56.9262 38.2383H38.6689V30.1342Z" fill="white"/>
<path d="M38.7173 51.1811L38.6813 51.1916L29.5952 48.7547L29.0141 42.2913H20.8252L21.9678 55.0161L38.6802 59.6233L38.7173 59.6127V51.1811Z" fill="#EBEBEB"/>
<path d="M48.7715 37.8955L47.7887 48.7482L38.689 51.1881V59.6197L55.4149 55.0154L55.5376 53.6461L56.9569 37.8955H48.7715Z" fill="white"/>
<path d="M38.6967 13.7314V21.8355H18.9894L18.826 20.0144L18.4544 15.9059L18.2592 13.7314H38.6967ZM38.669 30.1353V38.2394H29.6972L29.5338 36.4183L29.1616 32.3097L28.9669 30.1353H38.669Z" fill="#EBEBEB"/>
</svg>
