<svg width="78" height="75" viewBox="0 0 78 75" fill="none" xmlns="http://www.w3.org/2000/svg">
<g clip-path="url(#clip0_354_58)">
<path d="M9.77048 16.2375C9.628 12.2443 12.8196 8.56226 17.1341 8.56226H61.3438C65.6584 8.56226 68.85 12.2443 68.7075 16.2375C68.5704 20.073 68.7484 25.0418 70.0313 29.0929C71.3184 33.157 73.4886 35.7252 77.0432 36.0556V39.798C73.4886 40.1285 71.3184 42.6966 70.0313 46.7607C68.7484 50.8119 68.5704 55.7806 68.7075 59.6162C68.85 63.6094 65.6584 67.2908 61.3438 67.2908H17.1341C12.8196 67.2908 9.628 63.6088 9.77048 59.6162C9.90754 55.7806 9.7296 50.8119 8.44611 46.7607C7.15962 42.6972 4.9834 40.1285 1.42871 39.798V36.0556C4.9834 35.7257 7.15962 33.157 8.44611 29.0929C9.7296 25.0418 9.90694 20.073 9.77048 16.2375Z" fill="#6200C3"/>
<g filter="url(#filter0_d_354_58)">
<path d="M41.1059 53.7517C48.0908 53.7517 52.2999 50.4184 52.2999 44.9202C52.2999 40.7642 49.2967 37.7554 44.8373 37.2791V37.1059C48.1136 36.5865 50.6846 33.621 50.6846 30.3092C50.6846 25.5903 46.8623 22.5165 41.0377 22.5165H27.9324V53.7517H41.1059ZM33.0289 26.4777H39.8091C43.495 26.4777 45.5881 28.0795 45.5881 30.9801C45.5881 34.0755 43.1537 35.8072 38.7398 35.8072H33.0289V26.4777ZM33.0289 49.7905V39.5086H39.7635C44.5869 39.5086 47.0897 41.2402 47.0897 44.6171C47.0897 47.9938 44.6553 49.7905 40.0593 49.7905H33.0289Z" fill="url(#paint0_linear_354_58)"/>
</g>
</g>
<defs>
<filter id="filter0_d_354_58" x="24.0018" y="19.5686" width="32.2287" height="39.0963" filterUnits="userSpaceOnUse" color-interpolation-filters="sRGB">
<feFlood flood-opacity="0" result="BackgroundImageFix"/>
<feColorMatrix in="SourceAlpha" type="matrix" values="0 0 0 0 0 0 0 0 0 0 0 0 0 0 0 0 0 0 127 0" result="hardAlpha"/>
<feOffset dy="0.98264"/>
<feGaussianBlur stdDeviation="1.96528"/>
<feColorMatrix type="matrix" values="0 0 0 0 0 0 0 0 0 0 0 0 0 0 0 0 0 0 0.15 0"/>
<feBlend mode="normal" in2="BackgroundImageFix" result="effect1_dropShadow_354_58"/>
<feBlend mode="normal" in="SourceGraphic" in2="effect1_dropShadow_354_58" result="shape"/>
</filter>
<linearGradient id="paint0_linear_354_58" x1="30.238" y1="24.572" x2="44.4517" y2="49.2363" gradientUnits="userSpaceOnUse">
<stop stop-color="white"/>
<stop offset="1" stop-color="#F1E5FC"/>
</linearGradient>
<clipPath id="clip0_354_58">
<rect width="76.9491" height="75" fill="white" transform="translate(0.761841)"/>
</clipPath>
</defs>
</svg>
